<svg id="Слой_1" data-name="Слой 1" xmlns="http://www.w3.org/2000/svg" viewBox="0 0 899.24 440"><defs><style>.cls-1,.cls-2{fill:#ff2854;}.cls-2{stroke:#ff2854;}.cls-2,.cls-4{stroke-miterlimit:10;stroke-width:5px;}.cls-3,.cls-4{fill:#1ff5ee;}.cls-4{stroke:#1ff5ee;}</style></defs><path class="cls-1" d="M595,217V612H278V217H595m12-12H266V624H607V205Z" transform="translate(-138.14 -204.69)"/><rect class="cls-2" x="78.12" y="92.86" width="152" height="15.5"/><path class="cls-1" d="M936.14,216.69v395h-317v-395h317m12-12h-341v419h341v-419Z" transform="translate(-138.14 -204.69)"/><rect class="cls-2" x="882.88" y="515.64" width="152" height="15.5" transform="translate(1779.62 842.09) rotate(180)"/><path class="cls-3" d="M900.64,237.69v395h-317v-395h317m12-12h-341v419h341v-419Z" transform="translate(-138.14 -204.69)"/><rect class="cls-4" x="813.38" y="463.64" width="152" height="15.5" transform="translate(1640.62 738.09) rotate(180)"/><path class="cls-3" d="M559.38,237.69v395h-317v-395h317m12-12h-341v419h341v-419Z" transform="translate(-138.14 -204.69)"/><rect class="cls-4" x="2.5" y="135.55" width="152" height="15.5"/></svg>